
<svg xmlns="http://www.w3.org/2000/svg" width="0" height="0" style="position:absolute" aria-hidden="true">
  <defs>
    <g id="i-base-style"></g>
  </defs>

  
  <symbol id="i-dashboard" viewBox="0 0 24 24" fill="none" stroke="currentColor" stroke-width="1.6" stroke-linecap="round" stroke-linejoin="round">
    <rect x="3" y="3" width="7" height="9" rx="1.5"></rect>
    <rect x="14" y="3" width="7" height="5" rx="1.5"></rect>
    <rect x="14" y="12" width="7" height="9" rx="1.5"></rect>
    <rect x="3" y="16" width="7" height="5" rx="1.5"></rect>
  </symbol>

  
  <symbol id="i-users" viewBox="0 0 24 24" fill="none" stroke="currentColor" stroke-width="1.6" stroke-linecap="round" stroke-linejoin="round">
    <path d="M16 21v-2a4 4 0 0 0-4-4H6a4 4 0 0 0-4 4v2"></path>
    <circle cx="9" cy="7" r="4"></circle>
    <path d="M22 21v-2a4 4 0 0 0-3-3.87"></path>
    <path d="M16 3.13a4 4 0 0 1 0 7.75"></path>
  </symbol>

  
  <symbol id="i-user" viewBox="0 0 24 24" fill="none" stroke="currentColor" stroke-width="1.6" stroke-linecap="round" stroke-linejoin="round">
    <path d="M20 21v-2a4 4 0 0 0-4-4H8a4 4 0 0 0-4 4v2"></path>
    <circle cx="12" cy="7" r="4"></circle>
  </symbol>

  
  <symbol id="i-cpu" viewBox="0 0 24 24" fill="none" stroke="currentColor" stroke-width="1.6" stroke-linecap="round" stroke-linejoin="round">
    <rect x="4" y="4" width="16" height="16" rx="2"></rect>
    <rect x="9" y="9" width="6" height="6"></rect>
    <path d="M9 1v3M15 1v3M9 20v3M15 20v3M20 9h3M20 14h3M1 9h3M1 14h3"></path>
  </symbol>

  
  <symbol id="i-chart" viewBox="0 0 24 24" fill="none" stroke="currentColor" stroke-width="1.6" stroke-linecap="round" stroke-linejoin="round">
    <path d="M3 3v18h18"></path>
    <path d="M7 16V10M12 16V6M17 16v-4"></path>
  </symbol>

  
  <symbol id="i-calendar" viewBox="0 0 24 24" fill="none" stroke="currentColor" stroke-width="1.6" stroke-linecap="round" stroke-linejoin="round">
    <rect x="3" y="4" width="18" height="17" rx="2"></rect>
    <path d="M16 2v4M8 2v4M3 10h18"></path>
  </symbol>

  
  <symbol id="i-shield" viewBox="0 0 24 24" fill="none" stroke="currentColor" stroke-width="1.6" stroke-linecap="round" stroke-linejoin="round">
    <path d="M12 22s8-4 8-10V5l-8-3-8 3v7c0 6 8 10 8 10z"></path>
  </symbol>

  
  <symbol id="i-settings" viewBox="0 0 24 24" fill="none" stroke="currentColor" stroke-width="1.6" stroke-linecap="round" stroke-linejoin="round">
    <circle cx="12" cy="12" r="3"></circle>
    <path d="M19.4 15a1.65 1.65 0 0 0 .33 1.82l.06.06a2 2 0 1 1-2.83 2.83l-.06-.06a1.65 1.65 0 0 0-1.82-.33 1.65 1.65 0 0 0-1 1.51V21a2 2 0 0 1-4 0v-.09a1.65 1.65 0 0 0-1-1.51 1.65 1.65 0 0 0-1.82.33l-.06.06a2 2 0 1 1-2.83-2.83l.06-.06A1.65 1.65 0 0 0 4.6 15a1.65 1.65 0 0 0-1.51-1H3a2 2 0 0 1 0-4h.09A1.65 1.65 0 0 0 4.6 9a1.65 1.65 0 0 0-.33-1.82l-.06-.06a2 2 0 1 1 2.83-2.83l.06.06a1.65 1.65 0 0 0 1.82.33H9a1.65 1.65 0 0 0 1-1.51V3a2 2 0 0 1 4 0v.09a1.65 1.65 0 0 0 1 1.51 1.65 1.65 0 0 0 1.82-.33l.06-.06a2 2 0 1 1 2.83 2.83l-.06.06a1.65 1.65 0 0 0-.33 1.82V9c.34.13.66.34.93.6.27.27.48.59.6.93H21a2 2 0 0 1 0 4h-.09a1.65 1.65 0 0 0-1.51 1z"></path>
  </symbol>

  
  <symbol id="i-bell" viewBox="0 0 24 24" fill="none" stroke="currentColor" stroke-width="1.6" stroke-linecap="round" stroke-linejoin="round">
    <path d="M6 8a6 6 0 0 1 12 0c0 7 3 9 3 9H3s3-2 3-9"></path>
    <path d="M10.3 21a1.94 1.94 0 0 0 3.4 0"></path>
  </symbol>

  
  <symbol id="i-search" viewBox="0 0 24 24" fill="none" stroke="currentColor" stroke-width="1.6" stroke-linecap="round" stroke-linejoin="round">
    <circle cx="11" cy="11" r="7"></circle>
    <path d="M21 21l-4.3-4.3"></path>
  </symbol>

  
  <symbol id="i-plus" viewBox="0 0 24 24" fill="none" stroke="currentColor" stroke-width="1.6" stroke-linecap="round" stroke-linejoin="round">
    <path d="M12 5v14M5 12h14"></path>
  </symbol>

  
  <symbol id="i-chevron-down" viewBox="0 0 24 24" fill="none" stroke="currentColor" stroke-width="1.6" stroke-linecap="round" stroke-linejoin="round">
    <path d="M6 9l6 6 6-6"></path>
  </symbol>
  <symbol id="i-chevron-right" viewBox="0 0 24 24" fill="none" stroke="currentColor" stroke-width="1.6" stroke-linecap="round" stroke-linejoin="round">
    <path d="M9 6l6 6-6 6"></path>
  </symbol>

  
  <symbol id="i-arrow-ur" viewBox="0 0 24 24" fill="none" stroke="currentColor" stroke-width="1.6" stroke-linecap="round" stroke-linejoin="round">
    <path d="M7 17L17 7"></path><path d="M8 7h9v9"></path>
  </symbol>
  <symbol id="i-arrow-dr" viewBox="0 0 24 24" fill="none" stroke="currentColor" stroke-width="1.6" stroke-linecap="round" stroke-linejoin="round">
    <path d="M7 7l10 10"></path><path d="M17 8v9H8"></path>
  </symbol>

  
  <symbol id="i-clock" viewBox="0 0 24 24" fill="none" stroke="currentColor" stroke-width="1.6" stroke-linecap="round" stroke-linejoin="round">
    <circle cx="12" cy="12" r="9"></circle>
    <path d="M12 7v5l3.2 2"></path>
  </symbol>

  
  <symbol id="i-user-x" viewBox="0 0 24 24" fill="none" stroke="currentColor" stroke-width="1.6" stroke-linecap="round" stroke-linejoin="round">
    <path d="M16 21v-2a4 4 0 0 0-4-4H6a4 4 0 0 0-4 4v2"></path>
    <circle cx="9" cy="7" r="4"></circle>
    <path d="M17 8l5 5M22 8l-5 5"></path>
  </symbol>

  
  <symbol id="i-alert" viewBox="0 0 24 24" fill="none" stroke="currentColor" stroke-width="1.6" stroke-linecap="round" stroke-linejoin="round">
    <path d="M10.3 3.86 1.82 18a2 2 0 0 0 1.71 3h16.94a2 2 0 0 0 1.71-3L13.71 3.86a2 2 0 0 0-3.42 0z"></path>
    <path d="M12 9v4M12 17h.01"></path>
  </symbol>

  
  <symbol id="i-check-circle" viewBox="0 0 24 24" fill="none" stroke="currentColor" stroke-width="1.6" stroke-linecap="round" stroke-linejoin="round">
    <circle cx="12" cy="12" r="9"></circle>
    <path d="M8.5 12.5l2.5 2.5L16 9.5"></path>
  </symbol>
  <symbol id="i-check" viewBox="0 0 24 24" fill="none" stroke="currentColor" stroke-width="1.6" stroke-linecap="round" stroke-linejoin="round">
    <path d="M5 12.5l4 4L19 7"></path>
  </symbol>

  
  <symbol id="i-x" viewBox="0 0 24 24" fill="none" stroke="currentColor" stroke-width="1.6" stroke-linecap="round" stroke-linejoin="round">
    <path d="M6 6l12 12M6 18L18 6"></path>
  </symbol>
  <symbol id="i-x-circle" viewBox="0 0 24 24" fill="none" stroke="currentColor" stroke-width="1.6" stroke-linecap="round" stroke-linejoin="round">
    <circle cx="12" cy="12" r="9"></circle>
    <path d="M9 9l6 6M15 9l-6 6"></path>
  </symbol>

  
  <symbol id="i-more" viewBox="0 0 24 24" fill="none" stroke="currentColor" stroke-width="1.6" stroke-linecap="round" stroke-linejoin="round">
    <circle cx="6" cy="12" r="1.4" fill="currentColor"></circle>
    <circle cx="12" cy="12" r="1.4" fill="currentColor"></circle>
    <circle cx="18" cy="12" r="1.4" fill="currentColor"></circle>
  </symbol>

  
  <symbol id="i-eye" viewBox="0 0 24 24" fill="none" stroke="currentColor" stroke-width="1.6" stroke-linecap="round" stroke-linejoin="round">
    <path d="M2 12s3.5-7 10-7 10 7 10 7-3.5 7-10 7S2 12 2 12z"></path>
    <circle cx="12" cy="12" r="3"></circle>
  </symbol>

  
  <symbol id="i-zap" viewBox="0 0 24 24" fill="none" stroke="currentColor" stroke-width="1.6" stroke-linecap="round" stroke-linejoin="round">
    <path d="M13 2 4 14h7l-1 8 9-12h-7l1-8z"></path>
  </symbol>

  
  <symbol id="i-target" viewBox="0 0 24 24" fill="none" stroke="currentColor" stroke-width="1.6" stroke-linecap="round" stroke-linejoin="round">
    <circle cx="12" cy="12" r="9"></circle>
    <circle cx="12" cy="12" r="5"></circle>
    <circle cx="12" cy="12" r="1.4" fill="currentColor"></circle>
  </symbol>

  
  <symbol id="i-camera" viewBox="0 0 24 24" fill="none" stroke="currentColor" stroke-width="1.6" stroke-linecap="round" stroke-linejoin="round">
    <path d="M3 7h4l2-3h6l2 3h4v13H3z"></path>
    <circle cx="12" cy="13" r="4"></circle>
  </symbol>

  
  <symbol id="i-fingerprint" viewBox="0 0 24 24" fill="none" stroke="currentColor" stroke-width="1.6" stroke-linecap="round" stroke-linejoin="round">
    <path d="M5.5 9.5a8 8 0 0 1 14 0"></path>
    <path d="M3 14c.5-2.5 2-5 4.5-6.5"></path>
    <path d="M21 14c-.5-2.5-2-5-4.5-6.5"></path>
    <path d="M8 11.5a4 4 0 0 1 8 0v3.5c0 1.5-.5 3-1 4.5"></path>
    <path d="M11 12v4c0 1 .2 2 .5 3"></path>
    <path d="M14 13v2.5c0 1 .3 2 .8 3"></path>
  </symbol>

  
  <symbol id="i-building" viewBox="0 0 24 24" fill="none" stroke="currentColor" stroke-width="1.6" stroke-linecap="round" stroke-linejoin="round">
    <rect x="4" y="3" width="16" height="18" rx="1.5"></rect>
    <path d="M9 8h2M13 8h2M9 12h2M13 12h2M9 16h2M13 16h2"></path>
  </symbol>

  
  <symbol id="i-filter" viewBox="0 0 24 24" fill="none" stroke="currentColor" stroke-width="1.6" stroke-linecap="round" stroke-linejoin="round">
    <path d="M3 5h18l-7 9v6l-4-2v-4z"></path>
  </symbol>

  
  <symbol id="i-download" viewBox="0 0 24 24" fill="none" stroke="currentColor" stroke-width="1.6" stroke-linecap="round" stroke-linejoin="round">
    <path d="M21 15v4a2 2 0 0 1-2 2H5a2 2 0 0 1-2-2v-4"></path>
    <path d="M7 10l5 5 5-5"></path>
    <path d="M12 15V3"></path>
  </symbol>

  
  <symbol id="i-refresh" viewBox="0 0 24 24" fill="none" stroke="currentColor" stroke-width="1.6" stroke-linecap="round" stroke-linejoin="round">
    <path d="M21 12a9 9 0 1 1-3-6.7L21 8"></path>
    <path d="M21 3v5h-5"></path>
  </symbol>

  
  <symbol id="i-logout" viewBox="0 0 24 24" fill="none" stroke="currentColor" stroke-width="1.6" stroke-linecap="round" stroke-linejoin="round">
    <path d="M9 21H5a2 2 0 0 1-2-2V5a2 2 0 0 1 2-2h4"></path>
    <path d="M16 17l5-5-5-5"></path>
    <path d="M21 12H9"></path>
  </symbol>

  
  <symbol id="i-wifi" viewBox="0 0 24 24" fill="none" stroke="currentColor" stroke-width="1.6" stroke-linecap="round" stroke-linejoin="round">
    <path d="M5 12.5a10 10 0 0 1 14 0"></path>
    <path d="M8.5 16a5 5 0 0 1 7 0"></path>
    <circle cx="12" cy="19.5" r="1" fill="currentColor"></circle>
  </symbol>

  
  <symbol id="i-trending" viewBox="0 0 24 24" fill="none" stroke="currentColor" stroke-width="1.6" stroke-linecap="round" stroke-linejoin="round">
    <path d="M3 17l6-6 4 4 8-8"></path>
    <path d="M14 7h7v7"></path>
  </symbol>

  
  <symbol id="i-door" viewBox="0 0 24 24" fill="none" stroke="currentColor" stroke-width="1.6" stroke-linecap="round" stroke-linejoin="round">
    <path d="M5 21V4a1 1 0 0 1 1-1h12a1 1 0 0 1 1 1v17"></path>
    <path d="M3 21h18"></path>
    <circle cx="15" cy="13" r="0.7" fill="currentColor"></circle>
  </symbol>

  
  <symbol id="i-file" viewBox="0 0 24 24" fill="none" stroke="currentColor" stroke-width="1.6" stroke-linecap="round" stroke-linejoin="round">
    <path d="M14 2H6a2 2 0 0 0-2 2v16a2 2 0 0 0 2 2h12a2 2 0 0 0 2-2V8z"></path>
    <path d="M14 2v6h6"></path>
  </symbol>
</svg>